<svg width="24" height="17" viewBox="0 0 24 17" fill="none" xmlns="http://www.w3.org/2000/svg">
<path d="M20.3483 1.41734C20.3416 1.40548 20.3305 1.39618 20.3171 1.39112C18.761 0.735901 17.1189 0.268679 15.4319 0.00114602C15.4166 -0.00146906 15.4008 0.000417494 15.3867 0.00653738C15.3726 0.0126573 15.361 0.0226989 15.3534 0.0352342C15.1298 0.40769 14.9269 0.790264 14.7453 1.1815C12.9268 0.92815 11.077 0.92815 9.25848 1.1815C9.07569 0.78927 8.86946 0.406601 8.64072 0.0352342C8.63287 0.0229713 8.62119 0.0131609 8.60718 0.00708081C8.59317 0.00100068 8.57749 -0.0010674 8.56219 0.00114602C6.87499 0.268117 5.2328 0.735375 3.67695 1.39116C3.66363 1.39634 3.65239 1.40519 3.64478 1.41648C0.533384 5.6808 -0.318946 9.84026 0.0991784 13.9482C0.100355 13.9583 0.103725 13.968 0.109089 13.9769C0.114453 13.9857 0.121702 13.9935 0.130403 13.9997C1.94214 15.2309 3.96859 16.1706 6.12328 16.7788C6.13845 16.783 6.15466 16.7828 6.16971 16.7783C6.18477 16.7738 6.19795 16.7651 6.20749 16.7535C6.67027 16.1756 7.08032 15.5637 7.43349 14.9239C7.43834 14.9151 7.44111 14.9055 7.44162 14.8957C7.44213 14.8858 7.44035 14.876 7.43643 14.8668C7.4325 14.8577 7.4265 14.8494 7.41882 14.8425C7.41115 14.8356 7.40197 14.8303 7.3919 14.827C6.74527 14.5999 6.11925 14.3262 5.51973 14.0083C5.50884 14.0025 5.49969 13.9942 5.4931 13.9843C5.4865 13.9744 5.48266 13.9632 5.48191 13.9516C5.48117 13.9401 5.48354 13.9285 5.48882 13.918C5.49409 13.9074 5.50212 13.8983 5.51218 13.8913C5.63833 13.8048 5.7623 13.7156 5.88397 13.6239C5.89465 13.6158 5.90756 13.6107 5.92126 13.609C5.93496 13.6073 5.94891 13.6091 5.96153 13.6143C9.88925 15.2594 14.1416 15.2594 18.0228 13.6143C18.0354 13.6088 18.0495 13.6067 18.0634 13.6082C18.0773 13.6098 18.0905 13.6149 18.1013 13.623C18.2231 13.7153 18.3474 13.8047 18.4741 13.8913C18.4842 13.8982 18.4923 13.9073 18.4976 13.9178C18.503 13.9283 18.5055 13.9398 18.5048 13.9514C18.5041 13.963 18.5004 13.9742 18.4939 13.9842C18.4874 13.9941 18.4783 14.0024 18.4674 14.0083C17.8693 14.3288 17.2427 14.6024 16.5944 14.8261C16.5843 14.8296 16.5752 14.835 16.5675 14.842C16.5599 14.849 16.554 14.8574 16.5501 14.8666C16.5463 14.8758 16.5446 14.8857 16.5452 14.8956C16.5458 14.9055 16.5486 14.9151 16.5536 14.9239C16.9126 15.5601 17.3221 16.1713 17.7786 16.7525C17.7879 16.7644 17.801 16.7734 17.8161 16.7781C17.8312 16.7828 17.8476 16.783 17.8628 16.7787C20.0214 16.1725 22.0514 15.2327 23.8654 13.9997C23.8742 13.9938 23.8816 13.9862 23.887 13.9775C23.8923 13.9688 23.8956 13.9591 23.8966 13.9491C24.3972 9.19986 23.0586 5.07448 20.3483 1.41734ZM8.02006 11.4469C6.83753 11.4469 5.86316 10.451 5.86316 9.22784C5.86316 8.00471 6.81863 7.0087 8.02006 7.0087C9.23088 7.0087 10.1958 8.01336 10.1769 9.22776C10.1769 10.451 9.22141 11.4469 8.02006 11.4469ZM15.9948 11.4469C14.8123 11.4469 13.8379 10.451 13.8379 9.22784C13.8379 8.00471 14.7934 7.0087 15.9948 7.0087C17.2057 7.0087 18.1706 8.01336 18.1517 9.22776C18.1517 10.451 17.2057 11.4469 15.9948 11.4469Z" fill="white"/>
</svg>
