<svg width="49" height="48" viewBox="0 0 49 48" fill="none" xmlns="http://www.w3.org/2000/svg">
<rect x="0.980042" width="48" height="48" rx="24" fill="#5662F6"/>
<path d="M35.2066 14.6919C35.1984 14.676 35.1849 14.6636 35.1684 14.6569C33.2622 13.7823 31.2507 13.1587 29.1841 12.8016C29.1653 12.7981 29.1459 12.8006 29.1286 12.8088C29.1114 12.8169 29.0971 12.8303 29.0879 12.8471C28.814 13.3442 28.5654 13.8549 28.3429 14.3771C26.1152 14.0389 23.8493 14.0389 21.6216 14.3771C21.3977 13.8535 21.1451 13.3428 20.8649 12.8471C20.8553 12.8307 20.8409 12.8176 20.8238 12.8095C20.8066 12.8014 20.7874 12.7986 20.7687 12.8016C18.7019 13.1579 16.6902 13.7816 14.7843 14.6569C14.768 14.6638 14.7542 14.6757 14.7449 14.6907C10.9334 20.3826 9.88932 25.9346 10.4015 31.4178C10.403 31.4312 10.4071 31.4442 10.4137 31.456C10.4202 31.4678 10.4291 31.4782 10.4398 31.4865C12.6591 33.1298 15.1415 34.3841 17.781 35.196C17.7996 35.2016 17.8195 35.2013 17.8379 35.1953C17.8563 35.1892 17.8725 35.1777 17.8842 35.1622C18.4511 34.3908 18.9534 33.574 19.386 32.7201C19.392 32.7084 19.3954 32.6955 19.396 32.6824C19.3966 32.6693 19.3944 32.6562 19.3896 32.6439C19.3848 32.6317 19.3775 32.6206 19.3681 32.6115C19.3587 32.6023 19.3474 32.5952 19.3351 32.5907C18.543 32.2876 17.7761 31.9222 17.0417 31.498C17.0283 31.4902 17.0171 31.4792 17.009 31.466C17.001 31.4528 16.9963 31.4378 16.9954 31.4223C16.9944 31.4069 16.9973 31.3915 17.0038 31.3774C17.0103 31.3633 17.0201 31.3511 17.0324 31.3417C17.187 31.2263 17.3388 31.1073 17.4879 30.9849C17.5009 30.9741 17.5168 30.9672 17.5335 30.9649C17.5503 30.9627 17.5674 30.9652 17.5829 30.9721C22.3943 33.1679 27.6034 33.1679 32.3579 30.9721C32.3734 30.9647 32.3906 30.9619 32.4077 30.964C32.4247 30.966 32.4408 30.9729 32.4541 30.9837C32.6033 31.1068 32.7555 31.2262 32.9107 31.3417C32.9231 31.351 32.933 31.3632 32.9395 31.3772C32.9461 31.3912 32.9491 31.4066 32.9483 31.422C32.9475 31.4375 32.9429 31.4525 32.935 31.4658C32.927 31.479 32.9159 31.4901 32.9026 31.498C32.1698 31.9258 31.4023 32.2909 30.6081 32.5895C30.5957 32.5942 30.5845 32.6015 30.5752 32.6108C30.5659 32.6201 30.5586 32.6313 30.5539 32.6436C30.5491 32.6559 30.5471 32.6691 30.5478 32.6823C30.5485 32.6955 30.552 32.7083 30.5581 32.7201C30.9979 33.5693 31.4995 34.385 32.0588 35.1608C32.0701 35.1767 32.0862 35.1887 32.1047 35.195C32.1232 35.2012 32.1432 35.2015 32.1619 35.1958C34.8061 34.3867 37.2929 33.1323 39.515 31.4865C39.5258 31.4786 39.5349 31.4685 39.5414 31.4569C39.548 31.4452 39.5521 31.4323 39.5533 31.4189C40.1665 25.0798 38.5267 19.5733 35.2066 14.6919ZM20.1046 28.0791C18.656 28.0791 17.4624 26.7497 17.4624 25.1171C17.4624 23.4845 18.6328 22.1551 20.1046 22.1551C21.5878 22.1551 22.7699 23.4961 22.7467 25.117C22.7467 26.7497 21.5762 28.0791 20.1046 28.0791ZM29.8736 28.0791C28.425 28.0791 27.2314 26.7497 27.2314 25.1171C27.2314 23.4845 28.4019 22.1551 29.8736 22.1551C31.3569 22.1551 32.5389 23.4961 32.5158 25.117C32.5158 26.7497 31.3569 28.0791 29.8736 28.0791Z" fill="white"/>
</svg>
