<svg width="32" height="24" viewBox="0 0 32 24" fill="none" xmlns="http://www.w3.org/2000/svg">
<path d="M7.2 23.2C3.225 23.2 0 19.975 0 16C0 12.86 2.01 10.19 4.81 9.20499C4.805 9.06999 4.8 8.93499 4.8 8.79999C4.8 4.37999 8.38 0.799988 12.8 0.799988C15.765 0.799988 18.35 2.40999 19.735 4.80999C20.5231 4.28116 21.4509 3.99917 22.4 3.99999C25.05 3.99999 27.2 6.14999 27.2 8.79999C27.2 9.40999 27.085 9.98999 26.88 10.53C29.8 11.12 32 13.705 32 16.8C32 20.335 29.135 23.2 25.6 23.2H7.2ZM11.15 14.85L15.15 18.85C15.62 19.32 16.38 19.32 16.845 18.85L20.845 14.85C21.315 14.38 21.315 13.62 20.845 13.155C20.375 12.69 19.615 12.685 19.15 13.155L17.2 15.105V8.39999C17.2 7.73499 16.665 7.19999 16 7.19999C15.335 7.19999 14.8 7.73499 14.8 8.39999V15.105L12.85 13.155C12.38 12.685 11.62 12.685 11.155 13.155C10.69 13.625 10.685 14.385 11.155 14.85H11.15Z" fill="white"/>
</svg>
