<svg width="22" height="22" viewBox="0 0 22 22" fill="none" xmlns="http://www.w3.org/2000/svg">
<path d="M1.97609 1.97609C0.5 3.45228 0.5 5.82837 0.5 10.58V11.42C0.5 16.1717 0.5 18.5478 1.97609 20.0239C3.45228 21.5 5.82837 21.5 10.58 21.5H11.42C16.1717 21.5 18.5478 21.5 20.0239 20.0239C21.5 18.5478 21.5 16.1717 21.5 11.42V10.58C21.5 5.82833 21.5 3.45223 20.0239 1.97609C18.5478 0.5 16.1717 0.5 11.42 0.5H10.58C5.82833 0.5 3.45223 0.5 1.97609 1.97609ZM4.04375 6.88756H6.44127C6.52002 10.895 8.28748 12.5925 9.6875 12.9425V6.88752H11.945V10.3438C13.3275 10.195 14.78 8.62002 15.27 6.88752H17.5275C17.3428 7.78602 16.9747 8.63676 16.4463 9.38653C15.9178 10.1363 15.2403 10.769 14.4562 11.245C15.3317 11.6796 16.105 12.2952 16.7249 13.0508C17.3449 13.8065 17.7974 14.6852 18.0525 15.6288H15.5675C15.3385 14.8092 14.8726 14.0755 14.2281 13.5197C13.5836 12.964 12.7894 12.611 11.945 12.505V15.6288H11.6737C6.88752 15.6288 4.15752 12.3475 4.04375 6.88752V6.88756Z" fill="white"/>
</svg>
