<svg width="49" height="48" viewBox="0 0 49 48" fill="none" xmlns="http://www.w3.org/2000/svg">
<rect x="0.980042" width="48" height="48" rx="24" fill="#187FF4"/>
<path d="M12.9482 11.9681C10.98 13.9364 10.98 17.1045 10.98 23.44V24.56C10.98 30.8956 10.98 34.0637 12.9482 36.0318C14.9164 38 18.0845 38 24.42 38H25.54C31.8756 38 35.0437 38 37.0119 36.0318C38.98 34.0637 38.98 30.8956 38.98 24.56V23.44C38.98 17.1044 38.98 13.9363 37.0119 11.9681C35.0437 10 31.8756 10 25.54 10H24.42C18.0845 10 14.9164 10 12.9482 11.9681ZM15.705 18.5168H18.9017C19.0067 23.8601 21.3634 26.1234 23.23 26.5901V18.5167H26.24V23.125C28.0834 22.9267 30.02 20.8267 30.6734 18.5167H33.6834C33.4371 19.7147 32.9463 20.849 32.2417 21.8487C31.5371 22.8484 30.6338 23.692 29.5884 24.3267C30.7557 24.9062 31.7867 25.7269 32.6133 26.7345C33.4399 27.7421 34.0432 28.9136 34.3834 30.1717H31.07C30.7647 29.0789 30.1434 28.1006 29.2842 27.3596C28.4249 26.6186 27.3659 26.148 26.24 26.0067V30.1717H25.8784C19.4967 30.1717 15.8567 25.7967 15.705 18.5167V18.5168Z" fill="white"/>
</svg>
