<svg width="71" height="70" viewBox="0 0 71 70" fill="none" xmlns="http://www.w3.org/2000/svg">
<rect x="0.557007" width="70" height="70" rx="35" fill="#8700FF"/>
<path d="M26.4 21C18.45 21 12 27.45 12 35.4C12 43.35 18.45 49.8 26.4 49.8H45.6C53.55 49.8 60 43.35 60 35.4C60 27.45 53.55 21 45.6 21H26.4ZM49.2 28.8C49.9957 28.8 50.7587 29.1161 51.3213 29.6787C51.8839 30.2413 52.2 31.0044 52.2 31.8C52.2 32.5956 51.8839 33.3587 51.3213 33.9213C50.7587 34.4839 49.9957 34.8 49.2 34.8C48.4044 34.8 47.6413 34.4839 47.0787 33.9213C46.5161 33.3587 46.2 32.5956 46.2 31.8C46.2 31.0044 46.5161 30.2413 47.0787 29.6787C47.6413 29.1161 48.4044 28.8 49.2 28.8ZM41.4 39C41.4 38.2044 41.7161 37.4413 42.2787 36.8787C42.8413 36.3161 43.6044 36 44.4 36C45.1957 36 45.9587 36.3161 46.5213 36.8787C47.0839 37.4413 47.4 38.2044 47.4 39C47.4 39.7957 47.0839 40.5587 46.5213 41.1213C45.9587 41.6839 45.1957 42 44.4 42C43.6044 42 42.8413 41.6839 42.2787 41.1213C41.7161 40.5587 41.4 39.7957 41.4 39ZM24.6 31.2C24.6 30.2025 25.4025 29.4 26.4 29.4C27.3975 29.4 28.2 30.2025 28.2 31.2V33.6H30.6C31.5975 33.6 32.4 34.4025 32.4 35.4C32.4 36.3975 31.5975 37.2 30.6 37.2H28.2V39.6C28.2 40.5975 27.3975 41.4 26.4 41.4C25.4025 41.4 24.6 40.5975 24.6 39.6V37.2H22.2C21.2025 37.2 20.4 36.3975 20.4 35.4C20.4 34.4025 21.2025 33.6 22.2 33.6H24.6V31.2Z" fill="white"/>
</svg>
