<svg width="24" height="22" viewBox="0 0 24 22" fill="none" xmlns="http://www.w3.org/2000/svg">
<path d="M12 0.333252C9.10042 0.333252 6.75 2.68367 6.75 5.58325C6.75 7.92742 10.1812 12.1999 11.4958 13.7508C11.7621 14.0649 12.2383 14.0649 12.5042 13.7508C13.8188 12.1999 17.25 7.92742 17.25 5.58325C17.25 2.68367 14.8996 0.333252 12 0.333252ZM12 7.33325C11.0333 7.33325 10.25 6.54992 10.25 5.58325C10.25 4.61659 11.0333 3.83325 12 3.83325C12.9667 3.83325 13.75 4.61659 13.75 5.58325C13.75 6.54992 12.9667 7.33325 12 7.33325ZM0.838333 9.33117C0.590908 9.43013 0.378804 9.60095 0.229379 9.8216C0.0799536 10.0422 5.92587e-05 10.3026 0 10.5691L0 20.9991C0 21.4708 0.47625 21.7933 0.914167 21.6183L6.66667 18.9999V9.28825C6.29833 8.62242 5.99708 7.97409 5.78125 7.35409L0.838333 9.33117ZM12 15.3195C11.4138 15.3195 10.8592 15.062 10.4788 14.6128C9.65958 13.6462 8.78833 12.5453 8 11.4162V18.9995L16 21.6662V11.4166C15.2117 12.5453 14.3408 13.6466 13.5213 14.6133C13.1408 15.062 12.5863 15.3195 12 15.3195ZM23.0858 7.04825L17.3333 9.66659V21.6666L23.1617 19.3353C23.4091 19.2364 23.6213 19.0656 23.7707 18.845C23.9201 18.6243 24 18.3639 24 18.0974V7.66742C24 7.19575 23.5238 6.87325 23.0858 7.04825Z" fill="white"/>
</svg>
