<svg width="71" height="70" viewBox="0 0 71 70" fill="none" xmlns="http://www.w3.org/2000/svg">
<rect x="0.020752" width="70" height="70" rx="35" fill="#8700FF"/>
<path d="M16.0435 22.8C16.0435 20.1525 18.196 18 20.8435 18H49.6435C52.291 18 54.4435 20.1525 54.4435 22.8V42H49.6435V22.8H20.8435V42H16.0435V22.8ZM11.2435 45.84C11.2435 45.045 11.8885 44.4 12.6835 44.4H57.8035C58.5985 44.4 59.2435 45.045 59.2435 45.84C59.2435 49.02 56.6635 51.6 53.4835 51.6H17.0035C13.8235 51.6 11.2435 49.02 11.2435 45.84ZM32.3185 31.275L29.9935 33.6L32.3185 35.925C33.0235 36.63 33.0235 37.77 32.3185 38.4675C31.6135 39.165 30.4735 39.1725 29.776 38.4675L26.176 34.8675C25.471 34.1625 25.471 33.0225 26.176 32.325L29.776 28.725C30.481 28.02 31.621 28.02 32.3185 28.725C33.016 29.43 33.0235 30.57 32.3185 31.2675V31.275ZM40.7185 28.725L44.3185 32.325C45.0235 33.03 45.0235 34.17 44.3185 34.8675L40.7185 38.4675C40.0135 39.1725 38.8735 39.1725 38.176 38.4675C37.4785 37.7625 37.471 36.6225 38.176 35.925L40.501 33.6L38.176 31.275C37.471 30.57 37.471 29.43 38.176 28.7325C38.881 28.035 40.021 28.0275 40.7185 28.7325V28.725Z" fill="white"/>
</svg>
