<svg width="71" height="70" viewBox="0 0 71 70" fill="none" xmlns="http://www.w3.org/2000/svg">
<rect x="0.284973" width="70" height="70" rx="35" fill="#8700FF"/>
<path d="M19.4826 15.2565C16.5126 15.2565 14.098 17.6711 14.098 20.6411V26.0257C14.098 28.9957 16.5126 31.4103 19.4826 31.4103H51.7903C54.7602 31.4103 57.1749 28.9957 57.1749 26.0257V20.6411C57.1749 17.6711 54.7602 15.2565 51.7903 15.2565H19.4826ZM43.0403 21.3142C43.5758 21.3142 44.0894 21.5269 44.4681 21.9056C44.8468 22.2843 45.0595 22.7979 45.0595 23.3334C45.0595 23.8689 44.8468 24.3825 44.4681 24.7612C44.0894 25.1399 43.5758 25.3526 43.0403 25.3526C42.5047 25.3526 41.9911 25.1399 41.6125 24.7612C41.2338 24.3825 41.021 23.8689 41.021 23.3334C41.021 22.7979 41.2338 22.2843 41.6125 21.9056C41.9911 21.5269 42.5047 21.3142 43.0403 21.3142ZM47.0787 23.3334C47.0787 22.7979 47.2915 22.2843 47.6701 21.9056C48.0488 21.5269 48.5624 21.3142 49.098 21.3142C49.6335 21.3142 50.1471 21.5269 50.5258 21.9056C50.9044 22.2843 51.1172 22.7979 51.1172 23.3334C51.1172 23.8689 50.9044 24.3825 50.5258 24.7612C50.1471 25.1399 49.6335 25.3526 49.098 25.3526C48.5624 25.3526 48.0488 25.1399 47.6701 24.7612C47.2915 24.3825 47.0787 23.8689 47.0787 23.3334ZM19.4826 36.7949C16.5126 36.7949 14.098 39.2096 14.098 42.1795V47.5642C14.098 50.5341 16.5126 52.9488 19.4826 52.9488H51.7903C54.7602 52.9488 57.1749 50.5341 57.1749 47.5642V42.1795C57.1749 39.2096 54.7602 36.7949 51.7903 36.7949H19.4826ZM43.0403 42.8526C43.5758 42.8526 44.0894 43.0654 44.4681 43.444C44.8468 43.8227 45.0595 44.3363 45.0595 44.8719C45.0595 45.4074 44.8468 45.921 44.4681 46.2997C44.0894 46.6783 43.5758 46.8911 43.0403 46.8911C42.5047 46.8911 41.9911 46.6783 41.6125 46.2997C41.2338 45.921 41.021 45.4074 41.021 44.8719C41.021 44.3363 41.2338 43.8227 41.6125 43.444C41.9911 43.0654 42.5047 42.8526 43.0403 42.8526ZM47.7518 44.8719C47.7518 44.3363 47.9645 43.8227 48.3432 43.444C48.7219 43.0654 49.2355 42.8526 49.771 42.8526C50.3066 42.8526 50.8202 43.0654 51.1988 43.444C51.5775 43.8227 51.7903 44.3363 51.7903 44.8719C51.7903 45.4074 51.5775 45.921 51.1988 46.2997C50.8202 46.6783 50.3066 46.8911 49.771 46.8911C49.2355 46.8911 48.7219 46.6783 48.3432 46.2997C47.9645 45.921 47.7518 45.4074 47.7518 44.8719Z" fill="white"/>
</svg>
